{
    "asset" : {
        "generator" : "Khronos glTF Blender I/O v1.6.16",
        "version" : "2.0"
    },
    "scene" : 0,
    "scenes" : [
        {
            "name" : "Scene",
            "nodes" : [
                4
            ]
        }
    ],
    "nodes" : [
        {
            "mesh" : 0,
            "name" : "Bell",
            "scale" : [
                0.43278005719184875,
                0.07361655682325363,
                0.06571483612060547
            ],
            "translation" : [
                0.00031524119549430907,
                0.6151391267776489,
                0.0021361110266298056
            ]
        },
        {
            "children" : [
                0
            ],
            "name" : "Bell01",
            "translation" : [
                0,
                -0.5447642207145691,
                0
            ]
        },
        {
            "mesh" : 1,
            "name" : "Torus",
            "rotation" : [
                -0.7094698548316956,
                0.7047204971313477,
                -0.0007302732556127012,
                0.004584910348057747
            ],
            "scale" : [
                0.03705625981092453,
                0.0215906985104084,
                0.02182786725461483
            ]
        },
        {
            "children" : [
                2
            ],
            "name" : "Torus01",
            "translation" : [
                0,
                -0.5447642207145691,
                0
            ]
        },
        {
            "children" : [
                1,
                3
            ],
            "name" : "RootNode",
            "translation" : [
                -0.01216474175453186,
                1.2603789567947388,
                -0.00014099106192588806
            ]
        }
    ],
    "materials" : [
        {
            "doubleSided" : true,
            "name" : "Material.004",
            "pbrMetallicRoughness" : {
                "baseColorFactor" : [
                    0.09083478897809982,
                    0.015203859657049179,
                    0.001964412396773696,
                    1
                ],
                "metallicFactor" : 0,
                "roughnessFactor" : 0.8999999761581421
            }
        },
        {
            "doubleSided" : true,
            "name" : "Material.001",
            "pbrMetallicRoughness" : {
                "baseColorFactor" : [
                    0.7991032004356384,
                    0.4396570920944214,
                    0,
                    1
                ],
                "metallicFactor" : 1,
                "roughnessFactor" : 0
            }
        },
        {
            "doubleSided" : true,
            "name" : "Material.002",
            "pbrMetallicRoughness" : {
                "baseColorFactor" : [
                    0.4479690492153168,
                    0.2876243591308594,
                    0.023651106283068657,
                    1
                ],
                "metallicFactor" : 0.8999999761581421,
                "roughnessFactor" : 0.30000001192092896
            }
        }
    ],
    "meshes" : [
        {
            "name" : "Bell",
            "primitives" : [
                {
                    "attributes" : {
                        "POSITION" : 0,
                        "NORMAL" : 1
                    },
                    "indices" : 2,
                    "material" : 0
                },
                {
                    "attributes" : {
                        "POSITION" : 3,
                        "NORMAL" : 4
                    },
                    "indices" : 5,
                    "material" : 1
                },
                {
                    "attributes" : {
                        "POSITION" : 6,
                        "NORMAL" : 7
                    },
                    "indices" : 8,
                    "material" : 2
                }
            ]
        },
        {
            "name" : "Torus",
            "primitives" : [
                {
                    "attributes" : {
                        "POSITION" : 9,
                        "NORMAL" : 10
                    },
                    "indices" : 11,
                    "material" : 1
                },
                {
                    "attributes" : {
                        "POSITION" : 12,
                        "NORMAL" : 13
                    },
                    "indices" : 14,
                    "material" : 2
                }
            ]
        }
    ],
    "accessors" : [
        {
            "bufferView" : 0,
            "componentType" : 5126,
            "count" : 512,
            "max" : [
                1.5108319520950317,
                -0.09588146209716797,
                0.9566339254379272
            ],
            "min" : [
                -1.5133916139602661,
                -2.095881462097168,
                -1.0433661937713623
            ],
            "type" : "VEC3"
        },
        {
            "bufferView" : 1,
            "componentType" : 5126,
            "count" : 512,
            "type" : "VEC3"
        },
        {
            "bufferView" : 2,
            "componentType" : 5123,
            "count" : 1032,
            "type" : "SCALAR"
        },
        {
            "bufferView" : 3,
            "componentType" : 5126,
            "count" : 1456,
            "max" : [
                0.9517344832420349,
                0.0003833770751953125,
                6.240461826324463
            ],
            "min" : [
                -0.9531586170196533,
                -15.352346420288086,
                -6.304646968841553
            ],
            "type" : "VEC3"
        },
        {
            "bufferView" : 4,
            "componentType" : 5126,
            "count" : 1456,
            "type" : "VEC3"
        },
        {
            "bufferView" : 5,
            "componentType" : 5123,
            "count" : 4296,
            "type" : "SCALAR"
        },
        {
            "bufferView" : 6,
            "componentType" : 5126,
            "count" : 1600,
            "max" : [
                0.9427914619445801,
                -2.066887855529785,
                6.181565284729004
            ],
            "min" : [
                -0.9442155361175537,
                -15.197073936462402,
                -6.245750427246094
            ],
            "type" : "VEC3"
        },
        {
            "bufferView" : 7,
            "componentType" : 5126,
            "count" : 1600,
            "type" : "VEC3"
        },
        {
            "bufferView" : 8,
            "componentType" : 5123,
            "count" : 9216,
            "type" : "SCALAR"
        },
        {
            "bufferView" : 9,
            "componentType" : 5126,
            "count" : 3234,
            "max" : [
                19.342086791992188,
                4.393777370452881,
                4.603933811187744
            ],
            "min" : [
                -2.692196846008301,
                -5.155872821807861,
                -4.84202766418457
            ],
            "type" : "VEC3"
        },
        {
            "bufferView" : 10,
            "componentType" : 5126,
            "count" : 3234,
            "type" : "VEC3"
        },
        {
            "bufferView" : 11,
            "componentType" : 5123,
            "count" : 19392,
            "type" : "SCALAR"
        },
        {
            "bufferView" : 12,
            "componentType" : 5126,
            "count" : 1216,
            "max" : [
                14.316352844238281,
                0.7022186517715454,
                1.2891180515289307
            ],
            "min" : [
                -0.004058837890625,
                -1.8355196714401245,
                -1.2210663557052612
            ],
            "type" : "VEC3"
        },
        {
            "bufferView" : 13,
            "componentType" : 5126,
            "count" : 1216,
            "type" : "VEC3"
        },
        {
            "bufferView" : 14,
            "componentType" : 5123,
            "count" : 7284,
            "type" : "SCALAR"
        }
    ],
    "bufferViews" : [
        {
            "buffer" : 0,
            "byteLength" : 6144,
            "byteOffset" : 0
        },
        {
            "buffer" : 0,
            "byteLength" : 6144,
            "byteOffset" : 6144
        },
        {
            "buffer" : 0,
            "byteLength" : 2064,
            "byteOffset" : 12288
        },
        {
            "buffer" : 0,
            "byteLength" : 17472,
            "byteOffset" : 14352
        },
        {
            "buffer" : 0,
            "byteLength" : 17472,
            "byteOffset" : 31824
        },
        {
            "buffer" : 0,
            "byteLength" : 8592,
            "byteOffset" : 49296
        },
        {
            "buffer" : 0,
            "byteLength" : 19200,
            "byteOffset" : 57888
        },
        {
            "buffer" : 0,
            "byteLength" : 19200,
            "byteOffset" : 77088
        },
        {
            "buffer" : 0,
            "byteLength" : 18432,
            "byteOffset" : 96288
        },
        {
            "buffer" : 0,
            "byteLength" : 38808,
            "byteOffset" : 114720
        },
        {
            "buffer" : 0,
            "byteLength" : 38808,
            "byteOffset" : 153528
        },
        {
            "buffer" : 0,
            "byteLength" : 38784,
            "byteOffset" : 192336
        },
        {
            "buffer" : 0,
            "byteLength" : 14592,
            "byteOffset" : 231120
        },
        {
            "buffer" : 0,
            "byteLength" : 14592,
            "byteOffset" : 245712
        },
        {
            "buffer" : 0,
            "byteLength" : 14568,
            "byteOffset" : 260304
        }
    ],
    "buffers" : [
        {
            "byteLength" : 274872,
            "uri" : "data:application/octet-stream;base64,"
        }
    ]
}
